name rise45.9887peak57.8056fall74.9286.mot
datacolumns 19
datarows 30
range 1.06167800000000 1.10999500000000
endheader
time	ground_force1_vx	ground_force1_vy	ground_force1_vz	ground_force1_px	ground_force1_py	ground_force1_pz	ground_force2_vx	ground_force2_vy	ground_force2_vz	ground_force2_px	ground_force2_py	ground_force2_pz	ground_torque1_x	ground_torque1_y	ground_torque1_z	ground_torque2_x	ground_torque2_y	ground_torque2_z	
1.06167800000000	70.33539500000001	788.15971800000000	60.05432600000000	0.38089300000000	0.00000000000000	0.11213300000000	0.00000000000000	0.00000000000000	0.00000000000000	0.00000000000000	0.00000000000000	0.00000000000000	0.00000000000000	29.62404200000000	0.00000000000000	0.00000000000000	0.00000000000000	0.00000000000000	
1.06333400000000	69.94774700000001	791.28135599999996	60.20149500000000	0.38039400000000	0.00000000000000	0.11207800000000	0.00000000000000	0.00000000000000	0.00000000000000	0.00000000000000	0.00000000000000	0.00000000000000	0.00000000000000	29.72733500000000	0.00000000000000	0.00000000000000	0.00000000000000	0.00000000000000	
1.06499900000000	69.55240600000000	794.24375299999997	60.34173300000000	0.37993000000000	0.00000000000000	0.11202000000000	0.00000000000000	0.00000000000000	0.00000000000000	0.00000000000000	0.00000000000000	0.00000000000000	0.00000000000000	29.83001600000000	0.00000000000000	0.00000000000000	0.00000000000000	0.00000000000000	
1.06667800000000	69.14956900000000	797.04422000000000	60.47466300000000	0.37950100000000	0.00000000000000	0.11195900000000	0.00000000000000	0.00000000000000	0.00000000000000	0.00000000000000	0.00000000000000	0.00000000000000	0.00000000000000	29.93178500000000	0.00000000000000	0.00000000000000	0.00000000000000	0.00000000000000	
1.06833100000000	68.73942200000000	799.68031699999995	60.59986200000000	0.37910500000000	0.00000000000000	0.11189600000000	0.00000000000000	0.00000000000000	0.00000000000000	0.00000000000000	0.00000000000000	0.00000000000000	0.00000000000000	30.03229600000000	0.00000000000000	0.00000000000000	0.00000000000000	0.00000000000000	
1.07000300000000	68.32213299999999	802.14986399999998	60.71686500000000	0.37873900000000	0.00000000000000	0.11183000000000	0.00000000000000	0.00000000000000	0.00000000000000	0.00000000000000	0.00000000000000	0.00000000000000	0.00000000000000	30.13116700000000	0.00000000000000	0.00000000000000	0.00000000000000	0.00000000000000	
1.07167700000000	67.89786300000000	804.45095600000002	60.82516800000000	0.37840400000000	0.00000000000000	0.11176200000000	0.00000000000000	0.00000000000000	0.00000000000000	0.00000000000000	0.00000000000000	0.00000000000000	0.00000000000000	30.22797600000000	0.00000000000000	0.00000000000000	0.00000000000000	0.00000000000000	
1.07333300000000	67.46676500000000	806.58197099999995	60.92424200000000	0.37809800000000	0.00000000000000	0.11169200000000	0.00000000000000	0.00000000000000	0.00000000000000	0.00000000000000	0.00000000000000	0.00000000000000	0.00000000000000	30.32227300000000	0.00000000000000	0.00000000000000	0.00000000000000	0.00000000000000	
1.07500100000000	67.02898399999999	808.54158399999994	61.01353100000000	0.37781800000000	0.00000000000000	0.11161800000000	0.00000000000000	0.00000000000000	0.00000000000000	0.00000000000000	0.00000000000000	0.00000000000000	0.00000000000000	30.41357900000000	0.00000000000000	0.00000000000000	0.00000000000000	0.00000000000000	
1.07667500000000	66.58466700000000	810.32876999999996	61.09246500000000	0.37756300000000	0.00000000000000	0.11154200000000	0.00000000000000	0.00000000000000	0.00000000000000	0.00000000000000	0.00000000000000	0.00000000000000	0.00000000000000	30.50139100000000	0.00000000000000	0.00000000000000	0.00000000000000	0.00000000000000	
1.07833200000000	66.13395700000000	811.94281599999999	61.16046100000000	0.37733200000000	0.00000000000000	0.11146300000000	0.00000000000000	0.00000000000000	0.00000000000000	0.00000000000000	0.00000000000000	0.00000000000000	0.00000000000000	30.58519100000000	0.00000000000000	0.00000000000000	0.00000000000000	0.00000000000000	
1.08000100000000	65.67700000000001	813.38332600000001	61.21693100000000	0.37712200000000	0.00000000000000	0.11138100000000	0.00000000000000	0.00000000000000	0.00000000000000	0.00000000000000	0.00000000000000	0.00000000000000	0.00000000000000	30.66444400000000	0.00000000000000	0.00000000000000	0.00000000000000	0.00000000000000	
1.08168200000000	65.21394600000001	814.65022599999998	61.26129300000000	0.37693200000000	0.00000000000000	0.11129600000000	0.00000000000000	0.00000000000000	0.00000000000000	0.00000000000000	0.00000000000000	0.00000000000000	0.00000000000000	30.73860800000000	0.00000000000000	0.00000000000000	0.00000000000000	0.00000000000000	
1.08333000000000	64.74495400000001	815.74376700000005	61.29296700000000	0.37675900000000	0.00000000000000	0.11120900000000	0.00000000000000	0.00000000000000	0.00000000000000	0.00000000000000	0.00000000000000	0.00000000000000	0.00000000000000	30.80713400000000	0.00000000000000	0.00000000000000	0.00000000000000	0.00000000000000	
1.08500000000000	64.27018700000001	816.66452500000003	61.31139100000000	0.37660300000000	0.00000000000000	0.11111900000000	0.00000000000000	0.00000000000000	0.00000000000000	0.00000000000000	0.00000000000000	0.00000000000000	0.00000000000000	30.86947600000000	0.00000000000000	0.00000000000000	0.00000000000000	0.00000000000000	
1.08667400000000	63.78981900000000	817.41340700000001	61.31602000000000	0.37646100000000	0.00000000000000	0.11102500000000	0.00000000000000	0.00000000000000	0.00000000000000	0.00000000000000	0.00000000000000	0.00000000000000	0.00000000000000	30.92508800000000	0.00000000000000	0.00000000000000	0.00000000000000	0.00000000000000	
1.08833300000000	63.30403800000000	817.99164900000005	61.30633600000000	0.37633100000000	0.00000000000000	0.11092900000000	0.00000000000000	0.00000000000000	0.00000000000000	0.00000000000000	0.00000000000000	0.00000000000000	0.00000000000000	30.97343500000000	0.00000000000000	0.00000000000000	0.00000000000000	0.00000000000000	
1.09000600000000	62.81304100000000	818.40080899999998	61.28184700000000	0.37621000000000	0.00000000000000	0.11083000000000	0.00000000000000	0.00000000000000	0.00000000000000	0.00000000000000	0.00000000000000	0.00000000000000	0.00000000000000	31.01399300000000	0.00000000000000	0.00000000000000	0.00000000000000	0.00000000000000	
1.09166300000000	62.31704100000000	818.64277400000003	61.24209800000000	0.37609800000000	0.00000000000000	0.11072800000000	0.00000000000000	0.00000000000000	0.00000000000000	0.00000000000000	0.00000000000000	0.00000000000000	0.00000000000000	31.04625400000000	0.00000000000000	0.00000000000000	0.00000000000000	0.00000000000000	
1.09333000000000	61.81626400000000	818.71974599999999	61.18667200000000	0.37599100000000	0.00000000000000	0.11062300000000	0.00000000000000	0.00000000000000	0.00000000000000	0.00000000000000	0.00000000000000	0.00000000000000	0.00000000000000	31.06973000000000	0.00000000000000	0.00000000000000	0.00000000000000	0.00000000000000	
1.09500000000000	61.31095300000000	818.63424299999997	61.11519400000000	0.37588800000000	0.00000000000000	0.11051500000000	0.00000000000000	0.00000000000000	0.00000000000000	0.00000000000000	0.00000000000000	0.00000000000000	0.00000000000000	31.08395600000000	0.00000000000000	0.00000000000000	0.00000000000000	0.00000000000000	
1.09667500000000	60.80136600000000	818.38909200000001	61.02733500000000	0.37578700000000	0.00000000000000	0.11040500000000	0.00000000000000	0.00000000000000	0.00000000000000	0.00000000000000	0.00000000000000	0.00000000000000	0.00000000000000	31.08849500000000	0.00000000000000	0.00000000000000	0.00000000000000	0.00000000000000	
1.09833000000000	60.28777600000000	817.98741600000005	60.92281400000000	0.37568500000000	0.00000000000000	0.11029100000000	0.00000000000000	0.00000000000000	0.00000000000000	0.00000000000000	0.00000000000000	0.00000000000000	0.00000000000000	31.08293700000000	0.00000000000000	0.00000000000000	0.00000000000000	0.00000000000000	
1.09999600000000	59.77047500000000	817.43263400000001	60.80140400000000	0.37558100000000	0.00000000000000	0.11017500000000	0.00000000000000	0.00000000000000	0.00000000000000	0.00000000000000	0.00000000000000	0.00000000000000	0.00000000000000	31.06690700000000	0.00000000000000	0.00000000000000	0.00000000000000	0.00000000000000	
1.10166100000000	59.24976800000000	816.72844399999997	60.66293000000000	0.37547200000000	0.00000000000000	0.11005600000000	0.00000000000000	0.00000000000000	0.00000000000000	0.00000000000000	0.00000000000000	0.00000000000000	0.00000000000000	31.04006300000000	0.00000000000000	0.00000000000000	0.00000000000000	0.00000000000000	
1.10333400000000	58.72597800000000	815.87881600000003	60.50727400000000	0.37535600000000	0.00000000000000	0.10993400000000	0.00000000000000	0.00000000000000	0.00000000000000	0.00000000000000	0.00000000000000	0.00000000000000	0.00000000000000	31.00210200000000	0.00000000000000	0.00000000000000	0.00000000000000	0.00000000000000	
1.10500000000000	58.19944300000000	814.88797899999997	60.33437200000000	0.37523100000000	0.00000000000000	0.10981000000000	0.00000000000000	0.00000000000000	0.00000000000000	0.00000000000000	0.00000000000000	0.00000000000000	0.00000000000000	30.95275900000000	0.00000000000000	0.00000000000000	0.00000000000000	0.00000000000000	
1.10666400000000	57.67051500000000	813.76040999999998	60.14422000000000	0.37509500000000	0.00000000000000	0.10968300000000	0.00000000000000	0.00000000000000	0.00000000000000	0.00000000000000	0.00000000000000	0.00000000000000	0.00000000000000	30.89181000000000	0.00000000000000	0.00000000000000	0.00000000000000	0.00000000000000	
1.10832700000000	57.13956100000000	812.50081899999998	59.93687300000000	0.37494500000000	0.00000000000000	0.10955400000000	0.00000000000000	0.00000000000000	0.00000000000000	0.00000000000000	0.00000000000000	0.00000000000000	0.00000000000000	30.81907400000000	0.00000000000000	0.00000000000000	0.00000000000000	0.00000000000000	
1.10999500000000	56.60696000000000	811.11413700000003	59.71244100000000	0.37478100000000	0.00000000000000	0.10942200000000	0.00000000000000	0.00000000000000	0.00000000000000	0.00000000000000	0.00000000000000	0.00000000000000	0.00000000000000	30.73441200000000	0.00000000000000	0.00000000000000	0.00000000000000	0.00000000000000	
